<?xml version="1.0" encoding="UTF-8" standalone="no"?>
<!DOCTYPE svg PUBLIC "-//W3C//DTD SVG 1.1//EN" "http://www.w3.org/Graphics/SVG/1.1/DTD/svg11.dtd">
<svg width="100%" height="100%" viewBox="0 0 2658 713" version="1.1" xmlns="http://www.w3.org/2000/svg" xmlns:xlink="http://www.w3.org/1999/xlink" xml:space="preserve" xmlns:serif="http://www.serif.com/" style="fill-rule:evenodd;clip-rule:evenodd;stroke-linejoin:round;stroke-miterlimit:2;">
    <rect x="-56.272" y="-48.245" width="1685" height="930" style="fill:rgb(237,222,222);"/>
    <rect x="1628.73" y="-43.245" width="1410" height="1075" style="fill:rgb(255,0,0);"/>
    <g transform="matrix(1,0,0,1,2452,0.000177622)">
        <path d="M1802.56,712.752L-885.029,712.752L-885.029,676.532L-839.211,676.532L-839.211,630.559C-834.401,630.563 -829.581,630.572 -824.761,630.563C-824.671,608.419 -824.941,586.255 -824.641,564.131C-824.321,563.786 -823.651,563.118 -823.321,562.783C-819.771,562.438 -816.181,562.742 -812.601,562.661C-812.531,559.094 -812.841,555.506 -812.481,551.949C-812.151,551.615 -811.481,550.956 -811.141,550.621C-804.851,550.733 -798.271,549.587 -792.151,551.401C-791.661,551.127 -790.701,550.56 -790.221,550.286C-790.401,545.29 -790.291,540.293 -790.301,535.307C-785.381,535.175 -780.441,535.54 -775.531,535.185C-772.641,532.864 -774.651,528.395 -774.101,525.162C-767.181,525.436 -760.061,524.605 -753.231,525.557C-745.931,532.215 -739.281,539.614 -732.091,546.434C-728.871,546.525 -725.631,546.464 -722.381,546.16C-722.421,574.294 -722.411,602.427 -722.401,630.561L-697.441,630.561C-697.111,629.892 -696.441,628.564 -696.101,627.896C-695.971,605.823 -696.121,583.75 -696.021,561.677C-691.991,561.687 -687.941,561.697 -683.881,561.657C-683.441,558.738 -685.241,554.644 -682.441,552.647C-675.831,552.302 -669.191,552.657 -662.551,552.505C-662.121,555.93 -663.581,559.863 -661.931,562.974C-658.851,564.565 -654.901,563.298 -651.461,563.663C-651.431,575.946 -651.531,588.239 -651.411,600.523C-649.791,599.814 -648.251,598.851 -647.161,597.412C-644.661,594.017 -641.071,591.686 -638.291,588.554C-638.291,576.21 -638.301,563.866 -638.291,551.532C-638.531,540.708 -637.791,529.834 -638.691,519.051C-631.681,519.254 -624.641,518.788 -617.621,519.264C-614.221,520.49 -612.741,524.352 -609.941,526.51C-609.851,538.905 -609.981,551.289 -609.881,563.684C-606.141,566.653 -603.021,570.302 -599.601,573.626C-598.101,574.933 -597.691,576.97 -597.741,578.886C-597.761,596.115 -597.751,613.334 -597.751,630.562L-572.411,630.562C-572.401,587.997 -572.421,545.431 -572.401,502.862C-561.931,502.862 -551.461,502.862 -540.991,502.872C-540.911,521.317 -541.171,539.782 -540.871,558.227C-540.571,558.541 -539.941,559.18 -539.631,559.494C-535.041,559.849 -530.411,559.494 -525.791,559.616C-525.771,568.19 -525.851,576.764 -525.751,585.338C-525.421,585.966 -524.751,587.203 -524.401,587.831C-520.921,589.544 -519.421,593.415 -516.141,595.412C-514.951,597.084 -513.571,598.635 -512.141,600.135C-508.421,600.165 -504.691,600.176 -500.961,600.145C-498.141,597.267 -495.321,594.368 -492.351,591.622C-492.351,581.629 -492.371,571.637 -492.341,561.644C-483.271,561.634 -474.201,561.644 -465.121,561.644C-465.101,568.262 -465.261,574.88 -465.031,581.498C-461.581,584.64 -458.401,588.055 -455.071,591.329C-453.021,593.427 -450.571,595.281 -449.341,598.048C-448.701,598.109 -447.431,598.241 -446.791,598.301C-446.611,602.831 -447.001,607.392 -446.621,611.922L-445.331,613.209C-433.601,613.523 -421.841,613.239 -410.111,613.32C-410.041,597.936 -410.191,582.531 -410.091,567.147C-409.771,566.813 -409.131,566.144 -408.811,565.809C-399.521,565.505 -390.191,565.809 -380.871,565.698C-380.869,562.911 -380.868,560.124 -380.868,557.337L-380.874,540.615C-380.874,537.828 -380.874,535.041 -380.871,532.254L-341.341,532.254C-341.341,550.162 -341.361,568.06 -341.351,585.967C-333.921,585.977 -264.221,588.329 -264.211,606.236L-233.921,606.236C-233.841,590.406 -234.081,574.576 -233.811,558.766C-233.501,558.563 -232.871,558.158 -232.571,557.955C-226.601,557.469 -220.591,558.533 -214.631,557.702C-214.591,553.608 -215.201,549.361 -213.781,545.409C-206.341,545.571 -198.891,545.348 -191.431,545.49C-189.981,545.439 -189.121,547.081 -189.311,548.399C-189.331,567.675 -189.351,586.961 -189.331,606.237C-182.581,606.217 -175.851,606.257 -169.111,606.257C-167.811,606.46 -165.871,605.872 -166.041,604.2C-165.841,595.778 -166.241,587.346 -165.911,578.945C-164.881,574.911 -161.231,572.489 -158.951,569.216C-158.881,549.129 -158.951,529.042 -158.921,508.956C-150.141,508.936 -141.361,508.946 -132.571,508.946C-132.601,527.219 -132.511,545.481 -132.621,563.744C-125.401,564.889 -118.021,563.369 -110.741,564.261C-106.341,566.024 -103.621,570.22 -100.141,573.25C-100.141,588.979 -100.151,604.698 -100.141,620.427C-95.421,620.437 -90.691,620.437 -85.951,620.427C-85.931,590.023 -85.981,559.63 -85.931,529.236C-75.121,529.236 -64.291,529.165 -53.471,529.246C-51.831,529.013 -51.471,531.04 -51.581,532.256C-51.601,547.458 -51.731,562.66 -51.521,577.862C-45.441,577.882 -39.351,577.852 -33.261,577.872C-33.241,595.435 -33.261,612.999 -33.251,630.562C-17.041,630.603 -0.811,630.481 15.399,630.623C16.549,626.65 15.929,622.475 16.199,618.411C16.649,598.486 16.469,578.541 15.809,558.627C15.499,533.351 15.479,508.065 15.619,482.79C20.259,482.547 24.909,482.628 29.589,482.618C29.569,479.233 29.579,475.858 29.609,472.473C34.309,472.503 39.029,472.524 43.759,472.463C43.749,475.159 43.749,477.865 43.769,480.571L52.889,480.571C52.889,505.908 52.879,531.244 52.889,556.581L77.219,556.581C77.219,549.639 77.209,542.697 77.219,535.754C80.099,532.937 82.949,530.089 85.769,527.19C92.029,527.19 98.299,527.18 104.579,527.19C104.619,554.685 104.509,582.17 104.629,609.655C104.959,610.324 105.629,611.652 105.969,612.32C108.439,611.975 111.979,613.455 113.579,610.871C114.049,606.28 113.329,601.659 113.829,597.068C116.729,592.923 120.909,589.801 124.259,586.011C127.819,585.96 131.399,585.95 134.979,585.97C134.999,562.65 134.979,539.32 134.979,516.001C134.729,513.528 136.099,511.288 137.969,509.778C141.329,506.758 144.109,503.099 147.789,500.444C148.929,498.944 149.789,496.431 152.149,496.816C158.579,496.694 165.019,496.836 171.469,496.786C171.509,540.497 171.389,584.207 171.519,627.906C171.849,628.565 172.519,629.892 172.859,630.561L185.009,630.561C185.229,609.249 184.999,587.909 185.089,566.578C191.019,566.57 196.949,566.582 202.889,566.581L202.889,561.646L206.369,561.643C206.379,556.31 206.379,550.978 206.379,545.645L206.369,513.65L206.369,497.653C209.609,497.612 212.839,497.866 216.059,497.552C218.979,495.262 216.959,490.752 217.509,487.529C225.239,487.57 232.969,487.418 240.699,487.62C240.769,490.63 240.779,493.63 240.759,496.64C243.139,496.64 245.529,496.65 247.919,496.66C247.909,531.118 247.969,565.585 247.889,600.04C247.889,601.884 248.169,603.729 248.479,605.553C260.449,605.259 272.429,605.746 284.399,605.31C284.539,614.877 284.209,624.464 284.529,634.021C284.859,634.366 285.519,635.034 285.859,635.369C294.479,635.683 303.139,635.389 311.769,635.491C311.929,610.671 311.499,585.831 311.989,561.022C313.599,560.941 315.219,560.86 316.839,560.779C316.899,557.445 316.629,554.1 316.959,550.786C319.159,547.948 323.469,549.843 326.589,549.357C327.029,545.648 327.009,541.918 326.899,538.199C333.939,538.179 340.959,538.24 347.979,538.169C350.049,541.909 349.099,546.277 349.259,550.351C351.289,550.361 353.319,550.371 355.339,550.381C355.359,578.748 355.339,607.114 355.349,635.491L400.959,635.491L400.959,623.329C404.509,622.701 409.369,624.88 411.979,621.88C412.189,598.054 412.199,574.187 411.969,550.36L434.829,550.36C439.349,548.039 442.379,543.793 445.929,540.306C453.569,540.134 461.209,540.255 468.859,540.235C468.919,554.727 468.739,569.23 468.949,583.733C474.989,583.875 481.039,583.784 487.089,583.794C487.109,570.964 487.089,558.133 487.099,545.293C492.499,545.283 497.909,545.303 503.319,545.293L503.319,537.155C508.833,536.559 514.406,536.433 519.971,536.564L519.971,681.532L555.789,681.532L555.789,635.559C560.599,635.563 565.419,635.572 570.239,635.563C570.329,613.419 570.059,591.255 570.359,569.131C570.679,568.786 571.349,568.118 571.679,567.783C575.229,567.438 578.819,567.742 582.399,567.661C582.469,564.094 582.159,560.506 582.519,556.949C582.849,556.615 583.519,555.956 583.859,555.621C590.149,555.733 596.729,554.587 602.849,556.401C603.339,556.127 604.299,555.56 604.779,555.286C604.599,550.29 604.709,545.293 604.699,540.307C609.619,540.175 614.559,540.54 619.469,540.185C622.359,537.864 620.349,533.395 620.899,530.162C627.819,530.436 634.939,529.605 641.769,530.557C649.069,537.215 655.719,544.614 662.909,551.434C666.129,551.525 669.369,551.464 672.619,551.16C672.579,579.294 672.589,607.427 672.599,635.561L697.559,635.561C697.889,634.892 698.559,633.564 698.899,632.896C699.029,610.823 698.879,588.75 698.979,566.677C703.009,566.687 707.059,566.697 711.119,566.657C711.559,563.738 709.759,559.644 712.559,557.647C719.169,557.302 725.809,557.657 732.449,557.505C732.879,560.93 731.419,564.863 733.069,567.974C736.149,569.565 740.099,568.298 743.539,568.663C743.569,580.946 743.469,593.239 743.589,605.523C745.209,604.814 746.749,603.851 747.839,602.412C750.339,599.017 753.929,596.686 756.709,593.554C756.709,581.21 756.699,568.866 756.709,556.532C756.469,545.708 757.209,534.834 756.309,524.051C763.319,524.254 770.359,523.788 777.379,524.264C780.779,525.49 782.259,529.352 785.059,531.51C785.149,543.905 785.019,556.289 785.119,568.684C788.859,571.653 791.979,575.302 795.399,578.626C796.899,579.933 797.309,581.97 797.259,583.886C797.239,601.115 797.249,618.334 797.249,635.562L822.589,635.562C822.599,592.997 822.579,550.431 822.599,507.862C833.069,507.862 843.539,507.862 854.009,507.872C854.089,526.317 853.829,544.782 854.129,563.227C854.429,563.541 855.059,564.18 855.369,564.494C859.959,564.849 864.589,564.494 869.209,564.616C869.229,573.19 869.149,581.764 869.249,590.338C869.579,590.966 870.249,592.203 870.599,592.831C874.079,594.544 875.579,598.415 878.859,600.412C880.049,602.084 881.429,603.635 882.859,605.135C886.579,605.165 890.309,605.176 894.039,605.145C896.859,602.267 899.679,599.368 902.649,596.622C902.649,586.629 902.629,576.637 902.659,566.644C911.729,566.634 920.799,566.644 929.879,566.644C929.899,573.262 929.739,579.88 929.969,586.498C933.419,589.64 936.599,593.055 939.929,596.329C941.979,598.427 944.429,600.281 945.659,603.048C946.299,603.109 947.569,603.241 948.209,603.301C948.389,607.831 947.999,612.392 948.379,616.922L949.669,618.209C961.399,618.523 973.159,618.239 984.889,618.32C984.959,602.936 984.809,587.531 984.909,572.147C985.229,571.813 985.869,571.144 986.189,570.809C995.479,570.505 1004.81,570.809 1014.13,570.698C1014.14,559.55 1014.12,548.402 1014.13,537.254L1053.66,537.254C1053.66,555.162 1053.64,573.06 1053.65,590.967C1061.08,590.977 1130.78,593.329 1130.79,611.236L1161.08,611.236C1161.16,595.406 1160.92,579.576 1161.19,563.766C1161.5,563.563 1162.13,563.158 1162.43,562.955C1168.4,562.469 1174.41,563.533 1180.37,562.702C1180.41,558.608 1179.8,554.361 1181.22,550.409C1188.66,550.571 1196.11,550.348 1203.57,550.49C1205.02,550.439 1205.88,552.081 1205.69,553.399C1205.67,572.675 1205.65,591.961 1205.67,611.237C1212.42,611.217 1219.15,611.257 1225.89,611.257C1227.19,611.46 1229.13,610.872 1228.96,609.2C1229.16,600.778 1228.76,592.346 1229.09,583.945C1230.12,579.911 1233.77,577.489 1236.05,574.216C1236.12,554.129 1236.05,534.042 1236.08,513.956C1244.86,513.936 1253.64,513.946 1262.43,513.946C1262.4,532.219 1262.49,550.481 1262.38,568.744C1269.6,569.889 1276.98,568.369 1284.26,569.261C1288.66,571.024 1291.38,575.22 1294.86,578.25C1294.86,593.979 1294.85,609.698 1294.86,625.427C1299.58,625.437 1304.31,625.437 1309.05,625.427C1309.07,595.023 1309.02,564.63 1309.07,534.236C1319.88,534.236 1330.71,534.165 1341.53,534.246C1343.17,534.013 1343.53,536.04 1343.42,537.256C1343.4,552.458 1343.27,567.66 1343.48,582.862C1349.56,582.882 1355.65,582.852 1361.74,582.872C1361.76,600.435 1361.74,617.999 1361.75,635.562C1377.96,635.603 1394.19,635.481 1410.4,635.623C1411.55,631.65 1410.93,627.475 1411.2,623.411C1411.65,603.486 1411.47,583.541 1410.81,563.627C1410.5,538.351 1410.48,513.065 1410.62,487.79C1415.26,487.547 1419.91,487.628 1424.59,487.618C1424.57,484.233 1424.58,480.858 1424.61,477.473C1429.31,477.503 1434.03,477.524 1438.76,477.463C1438.75,480.159 1438.75,482.865 1438.77,485.571L1447.89,485.571C1447.89,510.908 1447.88,536.244 1447.89,561.581L1472.22,561.581C1472.22,554.639 1472.21,547.697 1472.22,540.754C1475.1,537.937 1477.95,535.089 1480.77,532.19C1487.03,532.19 1493.3,532.18 1499.58,532.19C1499.62,559.685 1499.51,587.17 1499.63,614.655C1499.96,615.324 1500.63,616.652 1500.97,617.32C1503.44,616.975 1506.98,618.455 1508.58,615.871C1509.05,611.28 1508.33,606.659 1508.83,602.068C1511.73,597.923 1515.91,594.801 1519.26,591.011C1522.82,590.96 1526.4,590.95 1529.98,590.97C1530,567.65 1529.98,544.32 1529.98,521.001C1529.73,518.528 1531.1,516.288 1532.97,514.778C1536.33,511.758 1539.11,508.099 1542.79,505.444C1543.93,503.944 1544.79,501.431 1547.15,501.816C1553.58,501.694 1560.02,501.836 1566.47,501.786C1566.51,545.497 1566.39,589.207 1566.52,632.906C1566.85,633.565 1567.52,634.892 1567.86,635.561L1580.01,635.561C1580.23,614.249 1580,592.909 1580.09,571.578C1586.02,571.57 1591.95,571.582 1597.89,571.581L1597.89,566.646L1601.37,566.643C1601.38,561.31 1601.38,555.978 1601.38,550.645L1601.37,518.65L1601.37,502.653C1604.61,502.612 1607.84,502.866 1611.06,502.552C1613.98,500.262 1611.96,495.752 1612.51,492.529C1620.24,492.57 1627.97,492.418 1635.7,492.62C1635.77,495.63 1635.78,498.63 1635.76,501.64C1638.14,501.64 1640.53,501.65 1642.92,501.66C1642.91,536.118 1642.97,570.585 1642.89,605.04C1642.89,606.884 1643.17,608.729 1643.48,610.553C1655.45,610.259 1667.43,610.746 1679.4,610.31C1679.54,619.877 1679.21,629.464 1679.53,639.021C1679.86,639.366 1680.52,640.034 1680.86,640.369C1689.48,640.683 1698.14,640.389 1706.77,640.491C1706.93,615.671 1706.5,590.831 1706.99,566.022C1708.6,565.941 1710.22,565.86 1711.84,565.779C1711.9,562.445 1711.63,559.1 1711.96,555.786C1714.16,552.948 1718.47,554.843 1721.59,554.357C1722.03,550.648 1722.01,546.918 1721.9,543.199C1728.94,543.179 1735.96,543.24 1742.98,543.169C1745.05,546.909 1744.1,551.277 1744.26,555.351C1746.29,555.361 1748.32,555.371 1750.34,555.381C1750.36,583.748 1750.34,612.114 1750.35,640.491L1795.96,640.491L1795.96,628.329C1797.96,627.976 1800.37,628.511 1802.56,628.512L1802.56,712.752Z" style="fill:rgb(237,222,222);fill-rule:nonzero;"/>
    </g>
    <g transform="matrix(1,0,0,1,-54.6667,0.000101527)">
        <path d="M1681.23,712.752L-885.029,712.752L-885.029,676.532L-839.211,676.532L-839.211,630.559C-834.401,630.563 -829.581,630.572 -824.761,630.563C-824.671,608.419 -824.941,586.255 -824.641,564.131C-824.321,563.786 -823.651,563.118 -823.321,562.783C-819.771,562.438 -816.181,562.742 -812.601,562.661C-812.531,559.094 -812.841,555.506 -812.481,551.949C-812.151,551.615 -811.481,550.956 -811.141,550.621C-804.851,550.733 -798.271,549.587 -792.151,551.401C-791.661,551.127 -790.701,550.56 -790.221,550.286C-790.401,545.29 -790.291,540.293 -790.301,535.307C-785.381,535.175 -780.441,535.54 -775.531,535.185C-772.641,532.864 -774.651,528.395 -774.101,525.162C-767.181,525.436 -760.061,524.605 -753.231,525.557C-745.931,532.215 -739.281,539.614 -732.091,546.434C-728.871,546.525 -725.631,546.464 -722.381,546.16C-722.421,574.294 -722.411,602.427 -722.401,630.561L-697.441,630.561C-697.111,629.892 -696.441,628.564 -696.101,627.896C-695.971,605.823 -696.121,583.75 -696.021,561.677C-691.991,561.687 -687.941,561.697 -683.881,561.657C-683.441,558.738 -685.241,554.644 -682.441,552.647C-675.831,552.302 -669.191,552.657 -662.551,552.505C-662.121,555.93 -663.581,559.863 -661.931,562.974C-658.851,564.565 -654.901,563.298 -651.461,563.663C-651.431,575.946 -651.531,588.239 -651.411,600.523C-649.791,599.814 -648.251,598.851 -647.161,597.412C-644.661,594.017 -641.071,591.686 -638.291,588.554C-638.291,576.21 -638.301,563.866 -638.291,551.532C-638.531,540.708 -637.791,529.834 -638.691,519.051C-631.681,519.254 -624.641,518.788 -617.621,519.264C-614.221,520.49 -612.741,524.352 -609.941,526.51C-609.851,538.905 -609.981,551.289 -609.881,563.684C-606.141,566.653 -603.021,570.302 -599.601,573.626C-598.101,574.933 -597.691,576.97 -597.741,578.886C-597.761,596.115 -597.751,613.334 -597.751,630.562L-572.411,630.562C-572.401,587.997 -572.421,545.431 -572.401,502.862C-561.931,502.862 -551.461,502.862 -540.991,502.872C-540.911,521.317 -541.171,539.782 -540.871,558.227C-540.571,558.541 -539.941,559.18 -539.631,559.494C-535.041,559.849 -530.411,559.494 -525.791,559.616C-525.771,568.19 -525.851,576.764 -525.751,585.338C-525.421,585.966 -524.751,587.203 -524.401,587.831C-520.921,589.544 -519.421,593.415 -516.141,595.412C-514.951,597.084 -513.571,598.635 -512.141,600.135C-508.421,600.165 -504.691,600.176 -500.961,600.145C-498.141,597.267 -495.321,594.368 -492.351,591.622C-492.351,581.629 -492.371,571.637 -492.341,561.644C-483.271,561.634 -474.201,561.644 -465.121,561.644C-465.101,568.262 -465.261,574.88 -465.031,581.498C-461.581,584.64 -458.401,588.055 -455.071,591.329C-453.021,593.427 -450.571,595.281 -449.341,598.048C-448.701,598.109 -447.431,598.241 -446.791,598.301C-446.611,602.831 -447.001,607.392 -446.621,611.922L-445.331,613.209C-433.601,613.523 -421.841,613.239 -410.111,613.32C-410.041,597.936 -410.191,582.531 -410.091,567.147C-409.771,566.813 -409.131,566.144 -408.811,565.809C-399.521,565.505 -390.191,565.809 -380.871,565.698C-380.869,562.911 -380.868,560.124 -380.868,557.337L-380.874,540.615C-380.874,537.828 -380.874,535.041 -380.871,532.254L-341.341,532.254C-341.341,550.162 -341.361,568.06 -341.351,585.967C-333.921,585.977 -264.221,588.329 -264.211,606.236L-233.921,606.236C-233.841,590.406 -234.081,574.576 -233.811,558.766C-233.501,558.563 -232.871,558.158 -232.571,557.955C-226.601,557.469 -220.591,558.533 -214.631,557.702C-214.591,553.608 -215.201,549.361 -213.781,545.409C-206.341,545.571 -198.891,545.348 -191.431,545.49C-189.981,545.439 -189.121,547.081 -189.311,548.399C-189.331,567.675 -189.351,586.961 -189.331,606.237C-182.581,606.217 -175.851,606.257 -169.111,606.257C-167.811,606.46 -165.871,605.872 -166.041,604.2C-165.841,595.778 -166.241,587.346 -165.911,578.945C-164.881,574.911 -161.231,572.489 -158.951,569.216C-158.881,549.129 -158.951,529.042 -158.921,508.956C-150.141,508.936 -141.361,508.946 -132.571,508.946C-132.601,527.219 -132.511,545.481 -132.621,563.744C-125.401,564.889 -118.021,563.369 -110.741,564.261C-106.341,566.024 -103.621,570.22 -100.141,573.25C-100.141,588.979 -100.151,604.698 -100.141,620.427C-95.421,620.437 -90.691,620.437 -85.951,620.427C-85.931,590.023 -85.981,559.63 -85.931,529.236C-75.121,529.236 -64.291,529.165 -53.471,529.246C-51.831,529.013 -51.471,531.04 -51.581,532.256C-51.601,547.458 -51.731,562.66 -51.521,577.862C-45.441,577.882 -39.351,577.852 -33.261,577.872C-33.241,595.435 -33.261,612.999 -33.251,630.562C-17.041,630.603 -0.811,630.481 15.399,630.623C16.549,626.65 15.929,622.475 16.199,618.411C16.649,598.486 16.469,578.541 15.809,558.627C15.499,533.351 15.479,508.065 15.619,482.79C20.259,482.547 24.909,482.628 29.589,482.618C29.569,479.233 29.579,475.858 29.609,472.473C34.309,472.503 39.029,472.524 43.759,472.463C43.749,475.159 43.749,477.865 43.769,480.571L52.889,480.571C52.889,505.908 52.879,531.244 52.889,556.581L77.219,556.581C77.219,549.639 77.209,542.697 77.219,535.754C80.099,532.937 82.949,530.089 85.769,527.19C92.029,527.19 98.299,527.18 104.579,527.19C104.619,554.685 104.509,582.17 104.629,609.655C104.959,610.324 105.629,611.652 105.969,612.32C108.439,611.975 111.979,613.455 113.579,610.871C114.049,606.28 113.329,601.659 113.829,597.068C116.729,592.923 120.909,589.801 124.259,586.011C127.819,585.96 131.399,585.95 134.979,585.97C134.999,562.65 134.979,539.32 134.979,516.001C134.729,513.528 136.099,511.288 137.969,509.778C141.329,506.758 144.109,503.099 147.789,500.444C148.929,498.944 149.789,496.431 152.149,496.816C158.579,496.694 165.019,496.836 171.469,496.786C171.509,540.497 171.389,584.207 171.519,627.906C171.849,628.565 172.519,629.892 172.859,630.561L185.009,630.561C185.229,609.249 184.999,587.909 185.089,566.578C191.019,566.57 196.949,566.582 202.889,566.581L202.889,561.646L206.369,561.643C206.379,556.31 206.379,550.978 206.379,545.645L206.369,513.65L206.369,497.653C209.609,497.612 212.839,497.866 216.059,497.552C218.979,495.262 216.959,490.752 217.509,487.529C225.239,487.57 232.969,487.418 240.699,487.62C240.769,490.63 240.779,493.63 240.759,496.64C243.139,496.64 245.529,496.65 247.919,496.66C247.909,531.118 247.969,565.585 247.889,600.04C247.889,601.884 248.169,603.729 248.479,605.553C260.449,605.259 272.429,605.746 284.399,605.31C284.539,614.877 284.209,624.464 284.529,634.021C284.859,634.366 285.519,635.034 285.859,635.369C294.479,635.683 303.139,635.389 311.769,635.491C311.929,610.671 311.499,585.831 311.989,561.022C313.599,560.941 315.219,560.86 316.839,560.779C316.899,557.445 316.629,554.1 316.959,550.786C319.159,547.948 323.469,549.843 326.589,549.357C327.029,545.648 327.009,541.918 326.899,538.199C333.939,538.179 340.959,538.24 347.979,538.169C350.049,541.909 349.099,546.277 349.259,550.351C351.289,550.361 353.319,550.371 355.339,550.381C355.359,578.748 355.339,607.114 355.349,635.491L400.959,635.491L400.959,623.329C404.509,622.701 409.369,624.88 411.979,621.88C412.189,598.054 412.199,574.187 411.969,550.36L434.829,550.36C439.349,548.039 442.379,543.793 445.929,540.306C453.569,540.134 461.209,540.255 468.859,540.235C468.919,554.727 468.739,569.23 468.949,583.733C474.989,583.875 481.039,583.784 487.089,583.794C487.109,570.964 487.089,558.133 487.099,545.293C492.499,545.283 497.909,545.303 503.319,545.293L503.319,537.155C508.833,536.559 514.406,536.433 519.971,536.564L519.971,681.532L555.789,681.532L555.789,635.559C560.599,635.563 565.419,635.572 570.239,635.563C570.329,613.419 570.059,591.255 570.359,569.131C570.679,568.786 571.349,568.118 571.679,567.783C575.229,567.438 578.819,567.742 582.399,567.661C582.469,564.094 582.159,560.506 582.519,556.949C582.849,556.615 583.519,555.956 583.859,555.621C590.149,555.733 596.729,554.587 602.849,556.401C603.339,556.127 604.299,555.56 604.779,555.286C604.599,550.29 604.709,545.293 604.699,540.307C609.619,540.175 614.559,540.54 619.469,540.185C622.359,537.864 620.349,533.395 620.899,530.162C627.819,530.436 634.939,529.605 641.769,530.557C649.069,537.215 655.719,544.614 662.909,551.434C666.129,551.525 669.369,551.464 672.619,551.16C672.579,579.294 672.589,607.427 672.599,635.561L697.559,635.561C697.889,634.892 698.559,633.564 698.899,632.896C699.029,610.823 698.879,588.75 698.979,566.677C703.009,566.687 707.059,566.697 711.119,566.657C711.559,563.738 709.759,559.644 712.559,557.647C719.169,557.302 725.809,557.657 732.449,557.505C732.879,560.93 731.419,564.863 733.069,567.974C736.149,569.565 740.099,568.298 743.539,568.663C743.569,580.946 743.469,593.239 743.589,605.523C745.209,604.814 746.749,603.851 747.839,602.412C750.339,599.017 753.929,596.686 756.709,593.554C756.709,581.21 756.699,568.866 756.709,556.532C756.469,545.708 757.209,534.834 756.309,524.051C763.319,524.254 770.359,523.788 777.379,524.264C780.779,525.49 782.259,529.352 785.059,531.51C785.149,543.905 785.019,556.289 785.119,568.684C788.859,571.653 791.979,575.302 795.399,578.626C796.899,579.933 797.309,581.97 797.259,583.886C797.239,601.115 797.249,618.334 797.249,635.562L822.589,635.562C822.599,592.997 822.579,550.431 822.599,507.862C833.069,507.862 843.539,507.862 854.009,507.872C854.089,526.317 853.829,544.782 854.129,563.227C854.429,563.541 855.059,564.18 855.369,564.494C859.959,564.849 864.589,564.494 869.209,564.616C869.229,573.19 869.149,581.764 869.249,590.338C869.579,590.966 870.249,592.203 870.599,592.831C874.079,594.544 875.579,598.415 878.859,600.412C880.049,602.084 881.429,603.635 882.859,605.135C886.579,605.165 890.309,605.176 894.039,605.145C896.859,602.267 899.679,599.368 902.649,596.622C902.649,586.629 902.629,576.637 902.659,566.644C911.729,566.634 920.799,566.644 929.879,566.644C929.899,573.262 929.739,579.88 929.969,586.498C933.419,589.64 936.599,593.055 939.929,596.329C941.979,598.427 944.429,600.281 945.659,603.048C946.299,603.109 947.569,603.241 948.209,603.301C948.389,607.831 947.999,612.392 948.379,616.922L949.669,618.209C961.399,618.523 973.159,618.239 984.889,618.32C984.959,602.936 984.809,587.531 984.909,572.147C985.229,571.813 985.869,571.144 986.189,570.809C995.479,570.505 1004.81,570.809 1014.13,570.698C1014.14,559.55 1014.12,548.402 1014.13,537.254L1053.66,537.254C1053.66,555.162 1053.64,573.06 1053.65,590.967C1061.08,590.977 1130.78,593.329 1130.79,611.236L1161.08,611.236C1161.16,595.406 1160.92,579.576 1161.19,563.766C1161.5,563.563 1162.13,563.158 1162.43,562.955C1168.4,562.469 1174.41,563.533 1180.37,562.702C1180.41,558.608 1179.8,554.361 1181.22,550.409C1188.66,550.571 1196.11,550.348 1203.57,550.49C1205.02,550.439 1205.88,552.081 1205.69,553.399C1205.67,572.675 1205.65,591.961 1205.67,611.237C1212.42,611.217 1219.15,611.257 1225.89,611.257C1227.19,611.46 1229.13,610.872 1228.96,609.2C1229.16,600.778 1228.76,592.346 1229.09,583.945C1230.12,579.911 1233.77,577.489 1236.05,574.216C1236.12,554.129 1236.05,534.042 1236.08,513.956C1244.86,513.936 1253.64,513.946 1262.43,513.946C1262.4,532.219 1262.49,550.481 1262.38,568.744C1269.6,569.889 1276.98,568.369 1284.26,569.261C1288.66,571.024 1291.38,575.22 1294.86,578.25C1294.86,593.979 1294.85,609.698 1294.86,625.427C1299.58,625.437 1304.31,625.437 1309.05,625.427C1309.07,595.023 1309.02,564.63 1309.07,534.236C1319.88,534.236 1330.71,534.165 1341.53,534.246C1343.17,534.013 1343.53,536.04 1343.42,537.256C1343.4,552.458 1343.27,567.66 1343.48,582.862C1349.56,582.882 1355.65,582.852 1361.74,582.872C1361.76,600.435 1361.74,617.999 1361.75,635.562C1377.96,635.603 1394.19,635.481 1410.4,635.623C1411.55,631.65 1410.93,627.475 1411.2,623.411C1411.65,603.486 1411.47,583.541 1410.81,563.627C1410.5,538.351 1410.48,513.065 1410.62,487.79C1415.26,487.547 1419.91,487.628 1424.59,487.618C1424.57,484.233 1424.58,480.858 1424.61,477.473C1429.31,477.503 1434.03,477.524 1438.76,477.463C1438.75,480.159 1438.75,482.865 1438.77,485.571L1447.89,485.571C1447.89,510.908 1447.88,536.244 1447.89,561.581L1472.22,561.581C1472.22,554.639 1472.21,547.697 1472.22,540.754C1475.1,537.937 1477.95,535.089 1480.77,532.19C1487.03,532.19 1493.3,532.18 1499.58,532.19C1499.62,559.685 1499.51,587.17 1499.63,614.655C1499.96,615.324 1500.63,616.652 1500.97,617.32C1503.44,616.975 1506.98,618.455 1508.58,615.871C1509.05,611.28 1508.33,606.659 1508.83,602.068C1511.73,597.923 1515.91,594.801 1519.26,591.011C1522.82,590.96 1526.4,590.95 1529.98,590.97C1530,567.65 1529.98,544.32 1529.98,521.001C1529.73,518.528 1531.1,516.288 1532.97,514.778C1536.33,511.758 1539.11,508.099 1542.79,505.444C1543.93,503.944 1544.79,501.431 1547.15,501.816C1553.58,501.694 1560.02,501.836 1566.47,501.786C1566.51,545.497 1566.39,589.207 1566.52,632.906C1566.85,633.565 1567.52,634.892 1567.86,635.561L1580.01,635.561C1580.23,614.249 1580,592.909 1580.09,571.578C1586.02,571.57 1591.95,571.582 1597.89,571.581L1597.89,566.646L1601.37,566.643C1601.38,561.31 1601.38,555.978 1601.38,550.645L1601.37,518.65L1601.37,502.653C1604.61,502.612 1607.84,502.866 1611.06,502.552C1613.98,500.262 1611.96,495.752 1612.51,492.529C1620.24,492.57 1627.97,492.418 1635.7,492.62C1635.77,495.63 1635.78,498.63 1635.76,501.64C1638.14,501.64 1640.53,501.65 1642.92,501.66C1642.91,536.118 1642.97,570.585 1642.89,605.04C1642.89,606.884 1643.17,608.729 1643.48,610.553C1655.45,610.259 1668.76,632.079 1680.73,631.643C1680.87,641.21 1681.23,712.752 1681.23,712.752Z" style="fill:rgb(255,0,0);fill-rule:nonzero;"/>
    </g>
</svg>
